<mxfile host="app.diagrams.net" modified="2023-05-23T16:47:53.159Z" agent="Mozilla/5.0 (Windows NT 10.0; Win64; x64) AppleWebKit/537.36 (KHTML, like Gecko) Chrome/113.0.0.0 Safari/537.36" etag="S5Fxiui7wbsMs7pJPL-v" version="21.3.2" type="github">
  <diagram name="Page-1" id="5w2UPYTCycQ_TXRi-KqG">
    <mxGraphModel dx="1434" dy="764" grid="0" gridSize="10" guides="1" tooltips="1" connect="1" arrows="1" fold="1" page="1" pageScale="1" pageWidth="850" pageHeight="1100" math="0" shadow="0">
      <root>
        <mxCell id="0" />
        <mxCell id="1" parent="0" />
        <mxCell id="904-7ifa7hF9Sjh3Jci1-5" value="" style="shape=cylinder3;whiteSpace=wrap;html=1;boundedLbl=1;backgroundOutline=1;size=15;" vertex="1" parent="1">
          <mxGeometry x="45" y="290" width="60" height="80" as="geometry" />
        </mxCell>
        <mxCell id="904-7ifa7hF9Sjh3Jci1-6" value="&lt;b&gt;&lt;font color=&quot;#007fff&quot;&gt;Persisters&lt;/font&gt;&lt;/b&gt;" style="rounded=1;whiteSpace=wrap;html=1;" vertex="1" parent="1">
          <mxGeometry x="175" y="300" width="120" height="60" as="geometry" />
        </mxCell>
        <mxCell id="904-7ifa7hF9Sjh3Jci1-7" value="&lt;b&gt;&lt;font color=&quot;#007fff&quot;&gt;Client Storages&lt;/font&gt;&lt;/b&gt;" style="text;html=1;align=center;verticalAlign=middle;resizable=0;points=[];autosize=1;strokeColor=none;fillColor=none;" vertex="1" parent="1">
          <mxGeometry x="22" y="380" width="106" height="26" as="geometry" />
        </mxCell>
        <mxCell id="904-7ifa7hF9Sjh3Jci1-8" value="Cached Storage&lt;br&gt;Local Storage&lt;br&gt;IndexDB" style="text;html=1;strokeColor=none;fillColor=none;align=left;verticalAlign=middle;whiteSpace=wrap;rounded=0;" vertex="1" parent="1">
          <mxGeometry x="30" y="408" width="90" height="60" as="geometry" />
        </mxCell>
        <mxCell id="904-7ifa7hF9Sjh3Jci1-9" value="" style="endArrow=classic;startArrow=classic;html=1;rounded=0;entryX=-0.033;entryY=0.633;entryDx=0;entryDy=0;entryPerimeter=0;exitX=1.05;exitY=0.588;exitDx=0;exitDy=0;exitPerimeter=0;" edge="1" parent="1" source="904-7ifa7hF9Sjh3Jci1-5" target="904-7ifa7hF9Sjh3Jci1-6">
          <mxGeometry width="50" height="50" relative="1" as="geometry">
            <mxPoint x="105" y="338" as="sourcePoint" />
            <mxPoint x="155" y="290" as="targetPoint" />
          </mxGeometry>
        </mxCell>
        <mxCell id="904-7ifa7hF9Sjh3Jci1-10" value="" style="endArrow=classic;startArrow=classic;html=1;rounded=0;" edge="1" parent="1">
          <mxGeometry width="50" height="50" relative="1" as="geometry">
            <mxPoint x="295" y="340" as="sourcePoint" />
            <mxPoint x="355" y="340" as="targetPoint" />
          </mxGeometry>
        </mxCell>
        <mxCell id="904-7ifa7hF9Sjh3Jci1-11" value="Sync" style="text;html=1;align=center;verticalAlign=middle;resizable=0;points=[];autosize=1;strokeColor=none;fillColor=none;" vertex="1" parent="1">
          <mxGeometry x="115" y="308" width="50" height="30" as="geometry" />
        </mxCell>
        <mxCell id="904-7ifa7hF9Sjh3Jci1-12" value="Sync" style="text;html=1;align=center;verticalAlign=middle;resizable=0;points=[];autosize=1;strokeColor=none;fillColor=none;" vertex="1" parent="1">
          <mxGeometry x="295" y="308" width="50" height="30" as="geometry" />
        </mxCell>
        <mxCell id="904-7ifa7hF9Sjh3Jci1-13" value="" style="endArrow=classic;startArrow=classic;html=1;rounded=0;exitX=0;exitY=0.593;exitDx=0;exitDy=0;exitPerimeter=0;" edge="1" parent="1">
          <mxGeometry width="50" height="50" relative="1" as="geometry">
            <mxPoint x="665" y="343.02" as="sourcePoint" />
            <mxPoint x="523" y="343" as="targetPoint" />
          </mxGeometry>
        </mxCell>
        <mxCell id="904-7ifa7hF9Sjh3Jci1-14" value="Sync data updating" style="text;html=1;align=center;verticalAlign=middle;resizable=0;points=[];autosize=1;strokeColor=none;fillColor=none;" vertex="1" parent="1">
          <mxGeometry x="545" y="308" width="130" height="30" as="geometry" />
        </mxCell>
        <mxCell id="904-7ifa7hF9Sjh3Jci1-15" value="&lt;ul style=&quot;border-color: var(--border-color); text-align: left;&quot;&gt;&lt;li&gt;&lt;span style=&quot;background-color: initial;&quot;&gt;Manage Data&lt;/span&gt;&lt;/li&gt;&lt;ul&gt;&lt;li style=&quot;border-color: var(--border-color);&quot;&gt;Store data&lt;/li&gt;&lt;li style=&quot;border-color: var(--border-color);&quot;&gt;Signal render UI&lt;/li&gt;&lt;/ul&gt;&lt;/ul&gt;&lt;li style=&quot;border-color: var(--border-color);&quot;&gt;Manage Business Logic&lt;/li&gt;" style="rounded=1;whiteSpace=wrap;html=1;" vertex="1" parent="1">
          <mxGeometry x="355" y="270" width="190" height="150" as="geometry" />
        </mxCell>
        <mxCell id="904-7ifa7hF9Sjh3Jci1-16" value="&lt;b&gt;&lt;font color=&quot;#007fff&quot;&gt;Controller&lt;/font&gt;&lt;/b&gt;" style="text;html=1;strokeColor=none;fillColor=none;align=center;verticalAlign=middle;whiteSpace=wrap;rounded=0;" vertex="1" parent="1">
          <mxGeometry x="425" y="274" width="60" height="30" as="geometry" />
        </mxCell>
        <mxCell id="904-7ifa7hF9Sjh3Jci1-18" value="&lt;ul style=&quot;border-color: var(--border-color);&quot;&gt;&lt;li style=&quot;border-color: var(--border-color);&quot;&gt;Manage multiple data UI stores&lt;/li&gt;&lt;/ul&gt;" style="rounded=1;whiteSpace=wrap;html=1;" vertex="1" parent="1">
          <mxGeometry x="665" y="290" width="150" height="110" as="geometry" />
        </mxCell>
        <mxCell id="904-7ifa7hF9Sjh3Jci1-19" value="State Store" style="text;html=1;strokeColor=none;fillColor=none;align=center;verticalAlign=middle;whiteSpace=wrap;rounded=0;fontStyle=1;fontColor=#007FFF;" vertex="1" parent="1">
          <mxGeometry x="709" y="290" width="74" height="30" as="geometry" />
        </mxCell>
        <mxCell id="904-7ifa7hF9Sjh3Jci1-20" value="&lt;ul&gt;&lt;li&gt;&lt;span style=&quot;background-color: initial;&quot;&gt;React Hook (statefull)&lt;/span&gt;&lt;br&gt;&lt;/li&gt;&lt;/ul&gt;" style="rounded=0;whiteSpace=wrap;html=1;align=left;" vertex="1" parent="1">
          <mxGeometry x="375" y="590" width="160" height="120" as="geometry" />
        </mxCell>
        <mxCell id="904-7ifa7hF9Sjh3Jci1-21" value="Obverser &lt;br&gt;change state" style="rhombus;whiteSpace=wrap;html=1;" vertex="1" parent="1">
          <mxGeometry x="675" y="470" width="125" height="110" as="geometry" />
        </mxCell>
        <mxCell id="904-7ifa7hF9Sjh3Jci1-22" value="Presenters (UI)" style="text;html=1;strokeColor=none;fillColor=none;align=center;verticalAlign=middle;whiteSpace=wrap;rounded=0;fontStyle=1;fontColor=#007FFF;" vertex="1" parent="1">
          <mxGeometry x="425" y="600" width="60" height="30" as="geometry" />
        </mxCell>
        <mxCell id="904-7ifa7hF9Sjh3Jci1-23" value="" style="endArrow=classic;startArrow=classic;html=1;rounded=0;entryX=0.5;entryY=0;entryDx=0;entryDy=0;exitX=0.534;exitY=1.022;exitDx=0;exitDy=0;exitPerimeter=0;" edge="1" parent="1" source="904-7ifa7hF9Sjh3Jci1-15" target="904-7ifa7hF9Sjh3Jci1-20">
          <mxGeometry width="50" height="50" relative="1" as="geometry">
            <mxPoint x="455" y="430" as="sourcePoint" />
            <mxPoint x="449.5" y="573" as="targetPoint" />
          </mxGeometry>
        </mxCell>
        <mxCell id="904-7ifa7hF9Sjh3Jci1-24" value="" style="endArrow=classic;startArrow=classic;html=1;rounded=0;entryX=0.5;entryY=1;entryDx=0;entryDy=0;" edge="1" parent="1" target="904-7ifa7hF9Sjh3Jci1-21">
          <mxGeometry width="50" height="50" relative="1" as="geometry">
            <mxPoint x="535" y="670" as="sourcePoint" />
            <mxPoint x="585" y="620" as="targetPoint" />
            <Array as="points">
              <mxPoint x="738" y="670" />
            </Array>
          </mxGeometry>
        </mxCell>
        <mxCell id="904-7ifa7hF9Sjh3Jci1-25" value="" style="endArrow=classic;startArrow=classic;html=1;rounded=0;entryX=0.5;entryY=0;entryDx=0;entryDy=0;exitX=0.5;exitY=1;exitDx=0;exitDy=0;" edge="1" parent="1" source="904-7ifa7hF9Sjh3Jci1-18" target="904-7ifa7hF9Sjh3Jci1-21">
          <mxGeometry width="50" height="50" relative="1" as="geometry">
            <mxPoint x="435" y="570" as="sourcePoint" />
            <mxPoint x="485" y="520" as="targetPoint" />
          </mxGeometry>
        </mxCell>
        <mxCell id="904-7ifa7hF9Sjh3Jci1-26" value="Call actions&amp;nbsp;&lt;br&gt;relative business&lt;br&gt;from UI entries" style="text;html=1;align=center;verticalAlign=middle;resizable=0;points=[];autosize=1;strokeColor=none;fillColor=none;" vertex="1" parent="1">
          <mxGeometry x="335" y="468" width="110" height="60" as="geometry" />
        </mxCell>
        <mxCell id="904-7ifa7hF9Sjh3Jci1-27" value="Signal render UI &lt;br&gt;through Hook React" style="text;html=1;align=center;verticalAlign=middle;resizable=0;points=[];autosize=1;strokeColor=none;fillColor=none;" vertex="1" parent="1">
          <mxGeometry x="545" y="620" width="130" height="40" as="geometry" />
        </mxCell>
        <mxCell id="904-7ifa7hF9Sjh3Jci1-28" value="&lt;b&gt;&lt;font color=&quot;#007fff&quot;&gt;API Server&lt;/font&gt;&lt;/b&gt;" style="rounded=1;whiteSpace=wrap;html=1;" vertex="1" parent="1">
          <mxGeometry x="390" y="90" width="120" height="60" as="geometry" />
        </mxCell>
        <mxCell id="904-7ifa7hF9Sjh3Jci1-29" value="" style="endArrow=classic;startArrow=classic;html=1;rounded=0;entryX=0.5;entryY=1;entryDx=0;entryDy=0;" edge="1" parent="1" target="904-7ifa7hF9Sjh3Jci1-28">
          <mxGeometry width="50" height="50" relative="1" as="geometry">
            <mxPoint x="450" y="270" as="sourcePoint" />
            <mxPoint x="500" y="230" as="targetPoint" />
          </mxGeometry>
        </mxCell>
      </root>
    </mxGraphModel>
  </diagram>
</mxfile>
